<?xml version="1.0" encoding="UTF-8" standalone="no"?>
<svg
   inkscape:export-ydpi="96"
   inkscape:export-xdpi="96"
   sodipodi:docname="phastphase.svg"
   inkscape:version="1.1.1 (c3084ef, 2021-09-22)"
   id="svg8"
   version="1.1"
   viewBox="0 0 19.999999 15"
   height="15mm"
   width="20mm"
   xmlns:inkscape="http://www.inkscape.org/namespaces/inkscape"
   xmlns:sodipodi="http://sodipodi.sourceforge.net/DTD/sodipodi-0.dtd"
   xmlns:xlink="http://www.w3.org/1999/xlink"
   xmlns="http://www.w3.org/2000/svg"
   xmlns:svg="http://www.w3.org/2000/svg"
   xmlns:rdf="http://www.w3.org/1999/02/22-rdf-syntax-ns#"
   xmlns:cc="http://creativecommons.org/ns#"
   xmlns:dc="http://purl.org/dc/elements/1.1/">
  <defs
     id="defs2">
    <linearGradient
       id="linearGradient49417"
       inkscape:collect="always">
      <stop
         id="stop49413"
         offset="0"
         style="stop-color:#ff0000;stop-opacity:1" />
      <stop
         id="stop49777"
         offset="0.166666"
         style="stop-color:#ffff00;stop-opacity:1" />
      <stop
         id="stop49907"
         offset="0.33333001"
         style="stop-color:#00ff00;stop-opacity:1" />
      <stop
         id="stop49419"
         offset="0.49778068"
         style="stop-color:#00ffff;stop-opacity:1" />
      <stop
         id="stop49711"
         offset="0.66666001"
         style="stop-color:#0000ff;stop-opacity:1" />
      <stop
         id="stop50101"
         offset="0.81165498"
         style="stop-color:#ff00ff;stop-opacity:1" />
      <stop
         id="stop49415"
         offset="1"
         style="stop-color:#ff0000;stop-opacity:1" />
    </linearGradient>
    <inkscape:path-effect
       effect="bspline"
       id="path-effect2873"
       is_visible="true"
       lpeversion="1"
       weight="33.333333"
       steps="2"
       helper_size="0"
       apply_no_weight="true"
       apply_with_weight="true"
       only_selected="false" />
    <inkscape:path-effect
       effect="bspline"
       id="path-effect2871"
       is_visible="true"
       lpeversion="1"
       weight="33.333333"
       steps="2"
       helper_size="0"
       apply_no_weight="true"
       apply_with_weight="true"
       only_selected="false" />
    <inkscape:path-effect
       effect="bspline"
       id="path-effect2828"
       is_visible="true"
       lpeversion="1"
       weight="33.333333"
       steps="2"
       helper_size="0"
       apply_no_weight="true"
       apply_with_weight="true"
       only_selected="false" />
    <inkscape:path-effect
       effect="bspline"
       id="path-effect2826"
       is_visible="true"
       lpeversion="1"
       weight="33.333333"
       steps="2"
       helper_size="0"
       apply_no_weight="true"
       apply_with_weight="true"
       only_selected="false" />
    <inkscape:path-effect
       only_selected="false"
       apply_with_weight="true"
       apply_no_weight="true"
       helper_size="0"
       steps="2"
       weight="33.333333"
       lpeversion="1"
       is_visible="true"
       id="path-effect2802"
       effect="bspline" />
    <inkscape:path-effect
       only_selected="false"
       apply_with_weight="true"
       apply_no_weight="true"
       helper_size="0"
       steps="2"
       weight="33.333333"
       lpeversion="1"
       is_visible="true"
       id="path-effect2800"
       effect="bspline" />
    <inkscape:path-effect
       effect="bspline"
       id="path-effect2765"
       is_visible="true"
       lpeversion="1"
       weight="33.333333"
       steps="2"
       helper_size="0"
       apply_no_weight="true"
       apply_with_weight="true"
       only_selected="false" />
    <inkscape:path-effect
       effect="bspline"
       id="path-effect2761"
       is_visible="true"
       lpeversion="1"
       weight="33.333333"
       steps="2"
       helper_size="0"
       apply_no_weight="true"
       apply_with_weight="true"
       only_selected="false" />
    <inkscape:path-effect
       effect="bspline"
       id="path-effect2757"
       is_visible="true"
       lpeversion="1"
       weight="33.333333"
       steps="2"
       helper_size="0"
       apply_no_weight="true"
       apply_with_weight="true"
       only_selected="false" />
    <marker
       inkscape:isstock="true"
       style="overflow:visible"
       id="Arrow2Sstart"
       refX="0"
       refY="0"
       orient="auto"
       inkscape:stockid="Arrow2Sstart">
      <path
         transform="matrix(0.3,0,0,0.3,-0.69,0)"
         d="M 8.7185878,4.0337352 -2.2072895,0.01601326 8.7185884,-4.0017078 c -1.7454984,2.3720609 -1.7354408,5.6174519 -6e-7,8.035443 z"
         style="fill:#900d24;fill-opacity:1;fill-rule:evenodd;stroke:#900d24;stroke-width:0.625;stroke-linejoin:round;stroke-opacity:1"
         id="path1345" />
    </marker>
    <marker
       inkscape:isstock="true"
       style="overflow:visible"
       id="Arrow2Mstart"
       refX="0"
       refY="0"
       orient="auto"
       inkscape:stockid="Arrow2Mstart">
      <path
         transform="scale(0.6)"
         d="M 8.7185878,4.0337352 -2.2072895,0.01601326 8.7185884,-4.0017078 c -1.7454984,2.3720609 -1.7354408,5.6174519 -6e-7,8.035443 z"
         style="fill:#900d24;fill-opacity:1;fill-rule:evenodd;stroke:#900d24;stroke-width:0.625;stroke-linejoin:round;stroke-opacity:1"
         id="path1339" />
    </marker>
    <marker
       inkscape:stockid="Arrow2Lstart"
       orient="auto"
       refY="0"
       refX="0"
       id="marker1271"
       style="overflow:visible"
       inkscape:isstock="true">
      <path
         id="path1269"
         style="fill:#900d24;fill-opacity:1;fill-rule:evenodd;stroke:#900d24;stroke-width:0.625;stroke-linejoin:round;stroke-opacity:1"
         d="M 8.7185878,4.0337352 -2.2072895,0.01601326 8.7185884,-4.0017078 c -1.7454984,2.3720609 -1.7354408,5.6174519 -6e-7,8.035443 z"
         transform="matrix(1.1,0,0,1.1,1.1,0)"
         inkscape:connector-curvature="0" />
    </marker>
    <linearGradient
       id="linearGradient1247-8-7"
       inkscape:collect="always">
      <stop
         id="stop1243"
         offset="0"
         style="stop-color:#900d24;stop-opacity:1;" />
      <stop
         id="stop1245"
         offset="1"
         style="stop-color:#900d24;stop-opacity:0;" />
    </linearGradient>
    <marker
       inkscape:isstock="true"
       style="overflow:visible"
       id="Arrow1Lstart"
       refX="0"
       refY="0"
       orient="auto"
       inkscape:stockid="Arrow1Lstart">
      <path
         inkscape:connector-curvature="0"
         transform="matrix(0.8,0,0,0.8,10,0)"
         style="fill:#a41f35;fill-opacity:1;fill-rule:evenodd;stroke:#a41f35;stroke-width:1pt;stroke-opacity:1"
         d="M 0,0 5,-5 -12.5,0 5,5 Z"
         id="path4623" />
    </marker>
    <marker
       inkscape:isstock="true"
       style="overflow:visible"
       id="Arrow1Lend"
       refX="0"
       refY="0"
       orient="auto"
       inkscape:stockid="Arrow1Lend">
      <path
         inkscape:connector-curvature="0"
         transform="matrix(-0.8,0,0,-0.8,-10,0)"
         style="fill:#a41f35;fill-opacity:1;fill-rule:evenodd;stroke:#a41f35;stroke-width:1pt;stroke-opacity:1"
         d="M 0,0 5,-5 -12.5,0 5,5 Z"
         id="path4626" />
    </marker>
    <marker
       inkscape:stockid="Arrow2Lstart"
       orient="auto"
       refY="0"
       refX="0"
       id="Arrow2Lstart-6"
       style="overflow:visible"
       inkscape:isstock="true">
      <path
         id="path4641-5"
         style="fill:#900d24;fill-opacity:1;fill-rule:evenodd;stroke:#900d24;stroke-width:0.625;stroke-linejoin:round;stroke-opacity:1"
         d="M 8.7185878,4.0337352 -2.2072895,0.01601326 8.7185884,-4.0017078 c -1.7454984,2.3720609 -1.7354408,5.6174519 -6e-7,8.035443 z"
         transform="matrix(1.1,0,0,1.1,1.1,0)"
         inkscape:connector-curvature="0" />
    </marker>
    <linearGradient
       gradientUnits="userSpaceOnUse"
       y2="26.310638"
       x2="64.451889"
       y1="26.310638"
       x1="60.985912"
       id="linearGradient1249"
       xlink:href="#linearGradient1247-8-7"
       inkscape:collect="always" />
    <linearGradient
       gradientTransform="translate(0.35566256,-0.35566256)"
       y2="28.38269"
       x2="60.490379"
       y1="26.469416"
       x1="62.470486"
       gradientUnits="userSpaceOnUse"
       id="linearGradient1689"
       xlink:href="#linearGradient1247-8-7"
       inkscape:collect="always" />
    <marker
       inkscape:stockid="Arrow2Sstart"
       orient="auto"
       refY="0"
       refX="0"
       id="Arrow2Sstart-6"
       style="overflow:visible"
       inkscape:isstock="true">
      <path
         id="path1345-5"
         style="fill:#900d24;fill-opacity:1;fill-rule:evenodd;stroke:#900d24;stroke-width:0.625;stroke-linejoin:round;stroke-opacity:1"
         d="M 8.7185878,4.0337352 -2.2072895,0.01601326 8.7185884,-4.0017078 c -1.7454984,2.3720609 -1.7354408,5.6174519 -6e-7,8.035443 z"
         transform="matrix(0.3,0,0,0.3,-0.69,0)" />
    </marker>
    <linearGradient
       inkscape:collect="always"
       xlink:href="#linearGradient1247-8-7"
       id="linearGradient3463"
       gradientUnits="userSpaceOnUse"
       x1="60.985912"
       y1="26.310638"
       x2="64.451889"
       y2="26.310638" />
    <linearGradient
       inkscape:collect="always"
       xlink:href="#linearGradient1247-8-7"
       id="linearGradient943-2"
       gradientUnits="userSpaceOnUse"
       x1="60.985912"
       y1="26.310638"
       x2="64.451889"
       y2="26.310638"
       gradientTransform="matrix(0.23664852,0,0,0.23664852,-37.85433,-19.000888)" />
    <linearGradient
       inkscape:collect="always"
       xlink:href="#linearGradient1247-8-7"
       id="linearGradient1038"
       gradientUnits="userSpaceOnUse"
       x1="60.985912"
       y1="26.310638"
       x2="64.451889"
       y2="26.310638"
       gradientTransform="matrix(0.11832426,0,0,0.11832426,15.163791,0.36323526)" />
    <marker
       inkscape:isstock="true"
       style="overflow:visible"
       id="Arrow2Sstart-6-7"
       refX="0"
       refY="0"
       orient="auto"
       inkscape:stockid="Arrow2Sstart">
      <path
         transform="matrix(0.3,0,0,0.3,-0.69,0)"
         d="M 8.7185878,4.0337352 -2.2072895,0.01601326 8.7185884,-4.0017078 c -1.7454984,2.3720609 -1.7354408,5.6174519 -6e-7,8.035443 z"
         style="fill:#900d24;fill-opacity:1;fill-rule:evenodd;stroke:#900d24;stroke-width:0.625;stroke-linejoin:round;stroke-opacity:1"
         id="path1345-5-9" />
    </marker>
    <linearGradient
       inkscape:collect="always"
       xlink:href="#linearGradient1247-8-7"
       id="linearGradient39635"
       gradientUnits="userSpaceOnUse"
       gradientTransform="matrix(0.23664852,0,0,0.23664852,-37.561929,-19.137144)"
       x1="60.985912"
       y1="26.310638"
       x2="64.451889"
       y2="26.310638"
       spreadMethod="reflect" />
    <linearGradient
       inkscape:collect="always"
       xlink:href="#linearGradient49417"
       id="linearGradient49031"
       x1="40.87484"
       y1="12.752169"
       x2="46.434807"
       y2="13.638638"
       gradientUnits="userSpaceOnUse"
       spreadMethod="repeat"
       gradientTransform="translate(0.22580912,4.0645641)" />
    <linearGradient
       inkscape:collect="always"
       xlink:href="#linearGradient1247-8-7"
       id="linearGradient1060"
       gradientUnits="userSpaceOnUse"
       gradientTransform="matrix(0.23664852,0,0,0.23664852,-37.85433,-19.000888)"
       x1="60.985912"
       y1="26.310638"
       x2="64.451889"
       y2="26.310638" />
    <linearGradient
       inkscape:collect="always"
       xlink:href="#linearGradient1247-8-7"
       id="linearGradient1066"
       gradientUnits="userSpaceOnUse"
       gradientTransform="matrix(0.23664852,0,0,0.23664852,-37.498667,-19.000889)"
       x1="60.985912"
       y1="26.310638"
       x2="64.451889"
       y2="26.310638" />
    <linearGradient
       inkscape:collect="always"
       xlink:href="#linearGradient1247-8-7"
       id="linearGradient1242"
       gradientUnits="userSpaceOnUse"
       gradientTransform="matrix(0.23664852,0,0,0.23664852,-37.143002,-19.000887)"
       x1="60.985912"
       y1="26.310638"
       x2="64.451889"
       y2="26.310638" />
  </defs>
  <sodipodi:namedview
     inkscape:document-rotation="0"
     inkscape:snap-nodes="false"
     inkscape:bbox-nodes="true"
     inkscape:bbox-paths="false"
     inkscape:snap-bbox-edge-midpoints="true"
     inkscape:snap-bbox-midpoints="true"
     inkscape:snap-bbox="true"
     inkscape:snap-tangential="true"
     inkscape:snap-perpendicular="true"
     inkscape:window-maximized="0"
     inkscape:window-y="0"
     inkscape:window-x="0"
     inkscape:window-height="878"
     inkscape:window-width="1440"
     showgrid="false"
     inkscape:current-layer="g3285"
     inkscape:document-units="mm"
     inkscape:cy="22.095084"
     inkscape:cx="16.658992"
     inkscape:zoom="2.851313"
     inkscape:pageshadow="2"
     inkscape:pageopacity="0.0"
     borderopacity="1.0"
     bordercolor="#666666"
     pagecolor="#ffffff"
     id="base"
     inkscape:showpageshadow="2"
     inkscape:pagecheckerboard="0"
     inkscape:deskcolor="#d1d1d1"
     units="mm" />
  <metadata
     id="metadata5">
    <rdf:RDF>
      <cc:Work
         rdf:about="">
        <dc:format>image/svg+xml</dc:format>
        <dc:type
           rdf:resource="http://purl.org/dc/dcmitype/StillImage" />
      </cc:Work>
    </rdf:RDF>
  </metadata>
  <g
     transform="translate(-54.419461,-280.8319)"
     id="layer1"
     inkscape:groupmode="layer"
     inkscape:label="Layer 1">
    <g
       transform="matrix(1.4878335,0,0,1.4878335,-4.60505,266.02566)"
       id="g1060">
      <g
         style="stroke:url(#linearGradient1249)"
         id="g1229">
        <g
           id="g3285"
           inkscape:export-xdpi="1000"
           inkscape:export-ydpi="1000"
           style="stroke:url(#linearGradient3463)"
           transform="translate(0.35566256)">
          <g
             aria-label="phast"
             id="text941-4-9"
             style="font-size:4.41744px;line-height:1.25;font-family:Raleway;-inkscape-font-specification:Raleway;text-align:center;letter-spacing:0px;word-spacing:0px;text-anchor:middle;fill:#cccccc;stroke:url(#linearGradient1242);stroke-width:0.23665">
            <path
               d="m 41.025755,12.121639 h 0.516841 l -0.08393,0.39757 q 0.163445,-0.203203 0.379899,-0.318056 0.220872,-0.119271 0.468249,-0.119271 0.251794,0 0.428492,0.128106 0.181115,0.123688 0.278298,0.340143 0.09718,0.216454 0.09718,0.481501 0,0.282716 -0.101601,0.547762 -0.101601,0.260629 -0.278299,0.463831 -0.17228,0.203203 -0.397569,0.322473 -0.22529,0.114854 -0.472666,0.114854 -0.251794,0 -0.419657,-0.119271 -0.167863,-0.123688 -0.229707,-0.331308 l -0.287134,1.347319 h -0.591937 z m 0.746548,1.855325 q 0.141358,0 0.269464,-0.07068 0.132523,-0.0751 0.229707,-0.194368 0.101601,-0.123688 0.159027,-0.273881 0.06184,-0.15461 0.06184,-0.309221 0,-0.15461 -0.05743,-0.278298 -0.05301,-0.123689 -0.159028,-0.194368 -0.101601,-0.07068 -0.242959,-0.07068 -0.07951,0 -0.163446,0.03092 -0.08393,0.02651 -0.167862,0.07951 -0.07951,0.05301 -0.150193,0.123689 -0.06626,0.07068 -0.114854,0.15461 l -0.119271,0.543345 q 0.02651,0.128106 0.08835,0.234124 0.06184,0.106019 0.154611,0.167863 0.09718,0.05743 0.212037,0.05743 z"
               style="font-style:italic;font-weight:bold;-inkscape-font-specification:'Raleway Semi-Bold Italic';fill:#e6e6e6"
               id="path1047" />
            <path
               d="m 43.920628,11.211646 h 0.591937 l -0.287134,1.338485 q 0.167863,-0.220872 0.401987,-0.344561 0.234125,-0.123688 0.481501,-0.123688 0.20762,0 0.322474,0.0751 0.11927,0.07068 0.167862,0.194367 0.05301,0.119271 0.05301,0.273881 0,0.08835 -0.01325,0.181115 -0.0088,0.09277 -0.03092,0.185533 l -0.304803,1.444503 H 44.71135 l 0.273881,-1.298728 q 0.01325,-0.06184 0.01767,-0.114853 0.0088,-0.05301 0.0088,-0.101601 0,-0.163446 -0.07068,-0.238542 -0.07068,-0.07951 -0.198785,-0.07951 -0.09277,0 -0.216455,0.06184 -0.119271,0.06184 -0.229707,0.17228 -0.110436,0.106019 -0.181115,0.247377 l -0.287133,1.351737 h -0.591937 z"
               style="font-style:italic;font-weight:bold;-inkscape-font-specification:'Raleway Semi-Bold Italic';fill:#e6e6e6"
               id="path1049" />
            <path
               d="m 46.712588,14.480552 q -0.256212,0 -0.441744,-0.123688 -0.181115,-0.128106 -0.282716,-0.340143 -0.09718,-0.216455 -0.09718,-0.485919 0,-0.287133 0.101601,-0.547762 0.101601,-0.260629 0.278299,-0.463831 0.181115,-0.203203 0.406404,-0.318056 0.229707,-0.119271 0.481501,-0.119271 0.238542,0 0.406405,0.128106 0.167863,0.123688 0.229707,0.318055 l 0.08835,-0.397569 h 0.591937 l -0.34456,1.625618 q -0.0044,0.02209 -0.0088,0.04417 -0.0044,0.01767 -0.0044,0.03534 0,0.09277 0.106018,0.09718 l -0.106018,0.503589 q -0.07951,0.01325 -0.141358,0.02209 -0.05743,0.0088 -0.101601,0.0088 -0.159028,0 -0.247377,-0.06626 -0.08835,-0.06626 -0.08835,-0.198785 0,-0.01767 0.0044,-0.03976 0.0044,-0.0265 0.0088,-0.05743 0.0044,-0.03534 0.01325,-0.07068 -0.167863,0.216455 -0.39757,0.331308 -0.229707,0.114854 -0.454996,0.114854 z m 0.265046,-0.503588 q 0.0751,0 0.159028,-0.02651 0.08393,-0.03092 0.163445,-0.07951 0.08393,-0.05301 0.154611,-0.123688 0.07068,-0.0751 0.119271,-0.159028 l 0.114853,-0.55218 q -0.01325,-0.128106 -0.07951,-0.229707 -0.06626,-0.101601 -0.163445,-0.159028 -0.09718,-0.06184 -0.20762,-0.06184 -0.141358,0 -0.273881,0.0751 -0.128106,0.07068 -0.229707,0.194367 -0.101601,0.119271 -0.163445,0.273881 -0.05743,0.150193 -0.05743,0.309221 0,0.150193 0.05743,0.273881 0.05743,0.123689 0.159028,0.194368 0.106018,0.07068 0.247376,0.07068 z"
               style="font-style:italic;font-weight:bold;-inkscape-font-specification:'Raleway Semi-Bold Italic';fill:#e6e6e6"
               id="path1051" />
            <path
               d="m 49.398599,14.480552 q -0.282716,0 -0.53451,-0.09277 -0.247377,-0.09277 -0.39757,-0.265047 l 0.295969,-0.371065 q 0.167862,0.145776 0.34456,0.22529 0.176697,0.0751 0.357812,0.0751 0.123689,0 0.212038,-0.03534 0.08835,-0.03976 0.13694,-0.101601 0.04859,-0.06626 0.04859,-0.150193 0,-0.110436 -0.09718,-0.163446 -0.09718,-0.05301 -0.304803,-0.114853 -0.229707,-0.0751 -0.3799,-0.141358 -0.145775,-0.07068 -0.216454,-0.163445 -0.07068,-0.09718 -0.07068,-0.24296 0,-0.247376 0.13694,-0.441744 0.141358,-0.194367 0.375483,-0.304803 0.238541,-0.114853 0.530092,-0.114853 0.251795,0 0.450579,0.07951 0.198785,0.0751 0.353396,0.238541 l -0.313639,0.357813 q -0.141358,-0.132523 -0.273881,-0.18995 -0.128106,-0.06184 -0.282716,-0.06184 -0.114854,0 -0.20762,0.03534 -0.08835,0.03092 -0.141358,0.09718 -0.05301,0.06626 -0.05301,0.159028 0,0.101601 0.07951,0.150193 0.08393,0.04417 0.287133,0.106018 0.247377,0.07068 0.406405,0.150193 0.159028,0.0751 0.238542,0.181115 0.07951,0.106019 0.07951,0.269464 0,0.242959 -0.132523,0.428492 -0.132523,0.185532 -0.371065,0.295968 -0.238541,0.106019 -0.556597,0.106019 z"
               style="font-style:italic;font-weight:bold;-inkscape-font-specification:'Raleway Semi-Bold Italic';fill:#e6e6e6"
               id="path1053" />
            <path
               d="m 50.907016,14.06973 q 0,-0.03976 0.0044,-0.07951 0.0044,-0.03976 0.01325,-0.08393 l 0.282716,-1.32965 h -0.287134 l 0.09718,-0.454996 h 0.282716 l 0.159028,-0.750965 h 0.591937 l -0.159028,0.750965 h 0.463831 l -0.09718,0.454996 H 51.799339 L 51.55638,13.7075 q -0.0044,0.01767 -0.0088,0.03534 0,0.01767 0,0.03534 0,0.08393 0.04859,0.119271 0.04859,0.03534 0.119271,0.03534 0.05743,0 0.114853,-0.01325 0.06184,-0.01325 0.114853,-0.03534 0.05301,-0.02209 0.09277,-0.03534 l 0.01767,0.468249 q -0.08835,0.03976 -0.198784,0.07951 -0.110436,0.03534 -0.229707,0.05743 -0.119271,0.02209 -0.238542,0.02209 -0.20762,0 -0.34456,-0.09277 -0.136941,-0.09718 -0.136941,-0.313638 z"
               style="font-style:italic;font-weight:bold;-inkscape-font-specification:'Raleway Semi-Bold Italic';fill:#e6e6e6"
               id="path1055" />
          </g>
          <g
             aria-label="phast"
             id="text941-4-1"
             style="font-size:4.41744px;line-height:1.25;font-family:Raleway;-inkscape-font-specification:Raleway;text-align:center;letter-spacing:0px;word-spacing:0px;text-anchor:middle;fill:#808080;stroke:url(#linearGradient1066);stroke-width:0.23665">
            <path
               d="m 40.670092,12.121639 h 0.516841 l -0.08393,0.39757 q 0.163446,-0.203203 0.3799,-0.318056 0.220872,-0.119271 0.468249,-0.119271 0.251794,0 0.428491,0.128106 0.181115,0.123688 0.278299,0.340143 0.09718,0.216454 0.09718,0.481501 0,0.282716 -0.101601,0.547762 -0.101601,0.260629 -0.278299,0.463831 -0.17228,0.203203 -0.39757,0.322473 -0.225289,0.114854 -0.472666,0.114854 -0.251794,0 -0.419657,-0.119271 -0.167862,-0.123688 -0.229706,-0.331308 l -0.287134,1.347319 h -0.591937 z m 0.746547,1.855325 q 0.141359,0 0.269464,-0.07068 0.132524,-0.0751 0.229707,-0.194368 0.101601,-0.123688 0.159028,-0.273881 0.06184,-0.15461 0.06184,-0.309221 0,-0.15461 -0.05743,-0.278298 -0.05301,-0.123689 -0.159027,-0.194368 -0.101601,-0.07068 -0.24296,-0.07068 -0.07951,0 -0.163445,0.03092 -0.08393,0.02651 -0.167863,0.07951 -0.07951,0.05301 -0.150193,0.123689 -0.06626,0.07068 -0.114853,0.15461 l -0.119271,0.543345 q 0.02651,0.128106 0.08835,0.234124 0.06184,0.106019 0.15461,0.167863 0.09718,0.05743 0.212037,0.05743 z"
               style="font-style:italic;font-weight:bold;-inkscape-font-specification:'Raleway Semi-Bold Italic';fill:#b3b3b3"
               id="path1036" />
            <path
               d="m 43.564965,11.211646 h 0.591937 l -0.287134,1.338485 q 0.167863,-0.220872 0.401987,-0.344561 0.234124,-0.123688 0.481501,-0.123688 0.20762,0 0.322473,0.0751 0.119271,0.07068 0.167863,0.194367 0.05301,0.119271 0.05301,0.273881 0,0.08835 -0.01325,0.181115 -0.0088,0.09277 -0.03092,0.185533 l -0.304804,1.444503 h -0.591936 l 0.273881,-1.298728 q 0.01325,-0.06184 0.01767,-0.114853 0.0088,-0.05301 0.0088,-0.101601 0,-0.163446 -0.07068,-0.238542 -0.07068,-0.07951 -0.198784,-0.07951 -0.09277,0 -0.216455,0.06184 -0.119271,0.06184 -0.229707,0.17228 -0.110436,0.106019 -0.181115,0.247377 l -0.287133,1.351737 h -0.591937 z"
               style="font-style:italic;font-weight:bold;-inkscape-font-specification:'Raleway Semi-Bold Italic';fill:#b3b3b3"
               id="path1038" />
            <path
               d="m 46.356925,14.480552 q -0.256212,0 -0.441744,-0.123688 -0.181115,-0.128106 -0.282717,-0.340143 -0.09718,-0.216455 -0.09718,-0.485919 0,-0.287133 0.101601,-0.547762 0.101601,-0.260629 0.278299,-0.463831 0.181115,-0.203203 0.406404,-0.318056 0.229707,-0.119271 0.481501,-0.119271 0.238542,0 0.406404,0.128106 0.167863,0.123688 0.229707,0.318055 l 0.08835,-0.397569 h 0.591937 l -0.34456,1.625618 q -0.0044,0.02209 -0.0088,0.04417 -0.0044,0.01767 -0.0044,0.03534 0,0.09277 0.106019,0.09718 l -0.106019,0.503589 q -0.07951,0.01325 -0.141358,0.02209 -0.05743,0.0088 -0.101601,0.0088 -0.159028,0 -0.247376,-0.06626 -0.08835,-0.06626 -0.08835,-0.198785 0,-0.01767 0.0044,-0.03976 0.0044,-0.0265 0.0088,-0.05743 0.0044,-0.03534 0.01325,-0.07068 -0.167862,0.216455 -0.397569,0.331308 -0.229707,0.114854 -0.454996,0.114854 z m 0.265046,-0.503588 q 0.0751,0 0.159028,-0.02651 0.08393,-0.03092 0.163445,-0.07951 0.08393,-0.05301 0.15461,-0.123688 0.07068,-0.0751 0.119271,-0.159028 l 0.114854,-0.55218 q -0.01325,-0.128106 -0.07951,-0.229707 -0.06626,-0.101601 -0.163445,-0.159028 -0.09718,-0.06184 -0.20762,-0.06184 -0.141358,0 -0.273881,0.0751 -0.128106,0.07068 -0.229707,0.194367 -0.101601,0.119271 -0.163445,0.273881 -0.05743,0.150193 -0.05743,0.309221 0,0.150193 0.05743,0.273881 0.05743,0.123689 0.159027,0.194368 0.106019,0.07068 0.247377,0.07068 z"
               style="font-style:italic;font-weight:bold;-inkscape-font-specification:'Raleway Semi-Bold Italic';fill:#b3b3b3"
               id="path1040" />
            <path
               d="m 49.042936,14.480552 q -0.282717,0 -0.534511,-0.09277 -0.247376,-0.09277 -0.397569,-0.265047 l 0.295968,-0.371065 q 0.167863,0.145776 0.344561,0.22529 0.176697,0.0751 0.357812,0.0751 0.123689,0 0.212037,-0.03534 0.08835,-0.03976 0.136941,-0.101601 0.04859,-0.06626 0.04859,-0.150193 0,-0.110436 -0.09718,-0.163446 -0.09718,-0.05301 -0.304803,-0.114853 -0.229707,-0.0751 -0.3799,-0.141358 -0.145776,-0.07068 -0.216455,-0.163445 -0.07068,-0.09718 -0.07068,-0.24296 0,-0.247376 0.136941,-0.441744 0.141358,-0.194367 0.375482,-0.304803 0.238542,-0.114853 0.530093,-0.114853 0.251794,0 0.450579,0.07951 0.198785,0.0751 0.353395,0.238541 l -0.313638,0.357813 q -0.141358,-0.132523 -0.273881,-0.18995 -0.128106,-0.06184 -0.282716,-0.06184 -0.114854,0 -0.20762,0.03534 -0.08835,0.03092 -0.141358,0.09718 -0.05301,0.06626 -0.05301,0.159028 0,0.101601 0.07951,0.150193 0.08393,0.04417 0.287134,0.106018 0.247377,0.07068 0.406405,0.150193 0.159027,0.0751 0.238541,0.181115 0.07951,0.106019 0.07951,0.269464 0,0.242959 -0.132523,0.428492 -0.132523,0.185532 -0.371065,0.295968 -0.238542,0.106019 -0.556597,0.106019 z"
               style="font-style:italic;font-weight:bold;-inkscape-font-specification:'Raleway Semi-Bold Italic';fill:#b3b3b3"
               id="path1042" />
            <path
               d="m 50.551353,14.06973 q 0,-0.03976 0.0044,-0.07951 0.0044,-0.03976 0.01325,-0.08393 l 0.282717,-1.32965 h -0.287134 l 0.09718,-0.454996 h 0.282716 l 0.159028,-0.750965 h 0.591937 l -0.159028,0.750965 h 0.463831 l -0.09718,0.454996 h -0.459413 l -0.24296,1.130865 q -0.0044,0.01767 -0.0088,0.03534 0,0.01767 0,0.03534 0,0.08393 0.04859,0.119271 0.04859,0.03534 0.119271,0.03534 0.05743,0 0.114854,-0.01325 0.06184,-0.01325 0.114853,-0.03534 0.05301,-0.02209 0.09277,-0.03534 l 0.01767,0.468249 q -0.08835,0.03976 -0.198785,0.07951 -0.110436,0.03534 -0.229707,0.05743 -0.11927,0.02209 -0.238541,0.02209 -0.20762,0 -0.344561,-0.09277 -0.13694,-0.09718 -0.13694,-0.313638 z"
               style="font-style:italic;font-weight:bold;-inkscape-font-specification:'Raleway Semi-Bold Italic';fill:#b3b3b3"
               id="path1044" />
          </g>
          <g
             aria-label="phast"
             id="text941-4"
             style="font-size:4.41744px;line-height:1.25;font-family:Raleway;-inkscape-font-specification:Raleway;text-align:center;letter-spacing:0px;word-spacing:0px;text-anchor:middle;stroke:url(#linearGradient943-2);stroke-width:0.23665">
            <path
               d="m 40.314429,12.121639 h 0.51684 l -0.08393,0.39757 q 0.163445,-0.203203 0.3799,-0.318056 0.220872,-0.119271 0.468248,-0.119271 0.251794,0 0.428492,0.128106 0.181115,0.123688 0.278299,0.340143 0.09718,0.216454 0.09718,0.481501 0,0.282716 -0.101601,0.547762 -0.101601,0.260629 -0.278298,0.463831 -0.172281,0.203203 -0.39757,0.322473 -0.225289,0.114854 -0.472666,0.114854 -0.251794,0 -0.419657,-0.119271 -0.167863,-0.123688 -0.229707,-0.331308 l -0.287133,1.347319 h -0.591937 z m 0.746547,1.855325 q 0.141358,0 0.269464,-0.07068 0.132523,-0.0751 0.229707,-0.194368 0.101601,-0.123688 0.159028,-0.273881 0.06184,-0.15461 0.06184,-0.309221 0,-0.15461 -0.05743,-0.278298 -0.05301,-0.123689 -0.159028,-0.194368 -0.101601,-0.07068 -0.242959,-0.07068 -0.07951,0 -0.163445,0.03092 -0.08393,0.02651 -0.167863,0.07951 -0.07951,0.05301 -0.150193,0.123689 -0.06626,0.07068 -0.114853,0.15461 L 40.60598,13.51755 q 0.02651,0.128106 0.08835,0.234124 0.06184,0.106019 0.15461,0.167863 0.09718,0.05743 0.212037,0.05743 z"
               style="font-style:italic;font-weight:bold;-inkscape-font-specification:'Raleway Semi-Bold Italic'"
               id="path1025" />
            <path
               d="m 43.209301,11.211646 h 0.591937 l -0.287133,1.338485 q 0.167863,-0.220872 0.401987,-0.344561 0.234124,-0.123688 0.481501,-0.123688 0.207619,0 0.322473,0.0751 0.119271,0.07068 0.167863,0.194367 0.05301,0.119271 0.05301,0.273881 0,0.08835 -0.01325,0.181115 -0.0088,0.09277 -0.03092,0.185533 l -0.304804,1.444503 h -0.591937 l 0.273881,-1.298728 q 0.01325,-0.06184 0.01767,-0.114853 0.0088,-0.05301 0.0088,-0.101601 0,-0.163446 -0.07068,-0.238542 -0.07068,-0.07951 -0.198785,-0.07951 -0.09277,0 -0.216454,0.06184 -0.119271,0.06184 -0.229707,0.17228 -0.110436,0.106019 -0.181115,0.247377 l -0.287134,1.351737 h -0.591937 z"
               style="font-style:italic;font-weight:bold;-inkscape-font-specification:'Raleway Semi-Bold Italic'"
               id="path1027" />
            <path
               d="m 46.001261,14.480552 q -0.256211,0 -0.441744,-0.123688 -0.181115,-0.128106 -0.282716,-0.340143 -0.09718,-0.216455 -0.09718,-0.485919 0,-0.287133 0.101602,-0.547762 0.101601,-0.260629 0.278298,-0.463831 0.181115,-0.203203 0.406405,-0.318056 0.229707,-0.119271 0.481501,-0.119271 0.238541,0 0.406404,0.128106 0.167863,0.123688 0.229707,0.318055 l 0.08835,-0.397569 h 0.591937 l -0.34456,1.625618 q -0.0044,0.02209 -0.0088,0.04417 -0.0044,0.01767 -0.0044,0.03534 0,0.09277 0.106019,0.09718 l -0.106019,0.503589 q -0.07951,0.01325 -0.141358,0.02209 -0.05743,0.0088 -0.101601,0.0088 -0.159028,0 -0.247377,-0.06626 -0.08835,-0.06626 -0.08835,-0.198785 0,-0.01767 0.0044,-0.03976 0.0044,-0.0265 0.0088,-0.05743 0.0044,-0.03534 0.01325,-0.07068 -0.167863,0.216455 -0.397569,0.331308 -0.229707,0.114854 -0.454997,0.114854 z m 0.265047,-0.503588 q 0.0751,0 0.159028,-0.02651 0.08393,-0.03092 0.163445,-0.07951 0.08393,-0.05301 0.15461,-0.123688 0.07068,-0.0751 0.119271,-0.159028 l 0.114854,-0.55218 q -0.01325,-0.128106 -0.07951,-0.229707 -0.06626,-0.101601 -0.163446,-0.159028 -0.09718,-0.06184 -0.207619,-0.06184 -0.141358,0 -0.273882,0.0751 -0.128105,0.07068 -0.229707,0.194367 -0.101601,0.119271 -0.163445,0.273881 -0.05743,0.150193 -0.05743,0.309221 0,0.150193 0.05743,0.273881 0.05743,0.123689 0.159028,0.194368 0.106019,0.07068 0.247377,0.07068 z"
               style="font-style:italic;font-weight:bold;-inkscape-font-specification:'Raleway Semi-Bold Italic'"
               id="path1029" />
            <path
               d="m 48.687272,14.480552 q -0.282716,0 -0.53451,-0.09277 -0.247377,-0.09277 -0.39757,-0.265047 l 0.295969,-0.371065 q 0.167863,0.145776 0.34456,0.22529 0.176698,0.0751 0.357813,0.0751 0.123688,0 0.212037,-0.03534 0.08835,-0.03976 0.136941,-0.101601 0.04859,-0.06626 0.04859,-0.150193 0,-0.110436 -0.09718,-0.163446 -0.09718,-0.05301 -0.304804,-0.114853 -0.229706,-0.0751 -0.379899,-0.141358 -0.145776,-0.07068 -0.216455,-0.163445 -0.07068,-0.09718 -0.07068,-0.24296 0,-0.247376 0.136941,-0.441744 0.141358,-0.194367 0.375482,-0.304803 0.238542,-0.114853 0.530093,-0.114853 0.251794,0 0.450579,0.07951 0.198785,0.0751 0.353395,0.238541 l -0.313638,0.357813 q -0.141358,-0.132523 -0.273882,-0.18995 -0.128105,-0.06184 -0.282716,-0.06184 -0.114853,0 -0.207619,0.03534 -0.08835,0.03092 -0.141359,0.09718 -0.05301,0.06626 -0.05301,0.159028 0,0.101601 0.07951,0.150193 0.08393,0.04417 0.287134,0.106018 0.247376,0.07068 0.406404,0.150193 0.159028,0.0751 0.238542,0.181115 0.07951,0.106019 0.07951,0.269464 0,0.242959 -0.132523,0.428492 -0.132524,0.185532 -0.371065,0.295968 -0.238542,0.106019 -0.556598,0.106019 z"
               style="font-style:italic;font-weight:bold;-inkscape-font-specification:'Raleway Semi-Bold Italic'"
               id="path1031" />
            <path
               d="m 50.195689,14.06973 q 0,-0.03976 0.0044,-0.07951 0.0044,-0.03976 0.01325,-0.08393 l 0.282716,-1.32965 h -0.287133 l 0.09718,-0.454996 h 0.282717 l 0.159027,-0.750965 h 0.591937 l -0.159027,0.750965 h 0.463831 l -0.09718,0.454996 H 51.088012 L 50.845053,13.7075 q -0.0044,0.01767 -0.0088,0.03534 0,0.01767 0,0.03534 0,0.08393 0.04859,0.119271 0.04859,0.03534 0.119271,0.03534 0.05743,0 0.114853,-0.01325 0.06184,-0.01325 0.114854,-0.03534 0.05301,-0.02209 0.09277,-0.03534 l 0.01767,0.468249 q -0.08835,0.03976 -0.198785,0.07951 -0.110436,0.03534 -0.229707,0.05743 -0.119271,0.02209 -0.238542,0.02209 -0.207619,0 -0.34456,-0.09277 -0.136941,-0.09718 -0.136941,-0.313638 z"
               style="font-style:italic;font-weight:bold;-inkscape-font-specification:'Raleway Semi-Bold Italic'"
               id="path1033" />
          </g>
          <g
             aria-label="phase"
             id="text941-4-7"
             style="font-size:4.41744px;line-height:1.25;font-family:Raleway;-inkscape-font-specification:Raleway;text-align:center;letter-spacing:0px;word-spacing:0px;text-anchor:middle;fill:url(#linearGradient49031);stroke:none">
            <path
               d="m 41.49452,18.408861 q -0.269464,0 -0.477083,-0.119271 -0.203203,-0.123688 -0.318056,-0.331308 v 1.34732 h -0.591937 v -3.255654 h 0.51684 v 0.39757 q 0.132524,-0.203202 0.335726,-0.318056 0.203202,-0.119271 0.463831,-0.119271 0.234124,0 0.428492,0.09277 0.198784,0.09277 0.34456,0.260629 0.145775,0.163445 0.225289,0.3799 0.08393,0.212037 0.08393,0.459413 0,0.335726 -0.132523,0.609607 -0.128106,0.273881 -0.357813,0.437327 -0.22529,0.159027 -0.521258,0.159027 z m -0.198785,-0.503588 q 0.136941,0 0.247377,-0.05743 0.110436,-0.05743 0.18995,-0.15461 0.08393,-0.101601 0.123688,-0.225289 0.04417,-0.128106 0.04417,-0.265047 0,-0.145775 -0.04859,-0.269464 -0.04418,-0.123688 -0.132524,-0.216454 -0.08835,-0.09718 -0.207619,-0.150193 -0.114854,-0.05301 -0.251794,-0.05301 -0.08393,0 -0.17228,0.03092 -0.08393,0.0265 -0.163446,0.07951 -0.07951,0.05301 -0.141358,0.123688 -0.05743,0.07068 -0.08393,0.15461 v 0.543345 q 0.05301,0.128106 0.141358,0.234125 0.09277,0.106018 0.212037,0.167862 0.119271,0.05743 0.242959,0.05743 z"
               style="font-weight:bold;-inkscape-font-specification:'Raleway Semi-Bold Italic'"
               id="path1014" />
            <path
               d="M 45.062776,18.364687 H 44.470839 V 17.06596 q 0,-0.269464 -0.106018,-0.401987 -0.101602,-0.132524 -0.282717,-0.132524 -0.106018,0 -0.225289,0.06185 -0.119271,0.06184 -0.216455,0.17228 -0.09277,0.106018 -0.13694,0.247376 v 1.351737 h -0.591937 v -3.224731 h 0.591937 v 1.338484 q 0.128106,-0.220872 0.348978,-0.34456 0.220872,-0.123689 0.481501,-0.123689 0.225289,0 0.366647,0.07951 0.141358,0.0751 0.220872,0.20762 0.07951,0.128106 0.110436,0.291551 0.03092,0.159028 0.03092,0.331308 z"
               style="font-weight:bold;-inkscape-font-specification:'Raleway Semi-Bold Italic'"
               id="path1016" />
            <path
               d="m 45.418449,17.679984 q 0,-0.22529 0.123688,-0.393152 0.128106,-0.172281 0.353395,-0.265047 0.22529,-0.09277 0.516841,-0.09277 0.145775,0 0.295968,0.02209 0.150193,0.02209 0.260629,0.07068 v -0.123688 q 0,-0.220872 -0.132523,-0.340143 -0.128106,-0.119271 -0.384317,-0.119271 -0.18995,0 -0.36223,0.06626 -0.172281,0.06626 -0.36223,0.194367 l -0.18995,-0.388735 q 0.229706,-0.150193 0.468248,-0.225289 0.242959,-0.0751 0.508006,-0.0751 0.494753,0 0.768634,0.247377 0.278299,0.247377 0.278299,0.706791 v 0.737712 q 0,0.09277 0.03092,0.132523 0.03534,0.03976 0.110436,0.04859 v 0.481501 q -0.07951,0.01325 -0.145775,0.02209 -0.06184,0.0088 -0.106019,0.0088 -0.176697,0 -0.269464,-0.07951 -0.08835,-0.07951 -0.110436,-0.194367 l -0.01325,-0.119271 q -0.150193,0.194367 -0.375482,0.300386 -0.22529,0.106018 -0.459414,0.106018 -0.229707,0 -0.41524,-0.09277 -0.181115,-0.09718 -0.287133,-0.260629 -0.101601,-0.167863 -0.101601,-0.375482 z m 1.440085,0.119271 q 0.04859,-0.05301 0.07951,-0.106019 0.03092,-0.05301 0.03092,-0.09718 v -0.234124 q -0.106018,-0.04417 -0.229707,-0.06626 -0.123688,-0.02651 -0.234124,-0.02651 -0.229707,0 -0.3799,0.101601 -0.145775,0.09718 -0.145775,0.260629 0,0.08835 0.04859,0.167863 0.04859,0.07951 0.141359,0.128105 0.09277,0.04859 0.220872,0.04859 0.132523,0 0.260628,-0.04859 0.128106,-0.05301 0.20762,-0.128105 z"
               style="font-weight:bold;-inkscape-font-specification:'Raleway Semi-Bold Italic'"
               id="path1018" />
            <path
               d="m 48.96662,18.408861 q -0.295969,0 -0.565433,-0.09718 -0.269463,-0.09718 -0.463831,-0.287134 l 0.212037,-0.384317 q 0.20762,0.167863 0.406405,0.247376 0.203202,0.07951 0.388735,0.07951 0.17228,0 0.273881,-0.06184 0.106018,-0.06184 0.106018,-0.185532 0,-0.08393 -0.05743,-0.128106 -0.05743,-0.04859 -0.167863,-0.08393 -0.106019,-0.03534 -0.260629,-0.07951 -0.256212,-0.08393 -0.428492,-0.163446 -0.17228,-0.07951 -0.260629,-0.198784 -0.08393,-0.123689 -0.08393,-0.313639 0,-0.229706 0.114853,-0.393152 0.119271,-0.167862 0.326891,-0.260629 0.212037,-0.09277 0.494753,-0.09277 0.247377,0 0.468249,0.07951 0.220872,0.0751 0.401987,0.247377 l -0.238542,0.375482 q -0.176697,-0.136941 -0.335725,-0.198785 -0.159028,-0.06626 -0.322473,-0.06626 -0.09277,0 -0.176698,0.02209 -0.07951,0.02209 -0.132523,0.0751 -0.04859,0.04859 -0.04859,0.141358 0,0.08393 0.04417,0.132524 0.04859,0.04417 0.141358,0.07951 0.09718,0.03534 0.234125,0.07951 0.278298,0.07951 0.468248,0.163446 0.194368,0.08393 0.291551,0.207619 0.09718,0.119271 0.09718,0.331308 0,0.344561 -0.251794,0.538928 -0.251794,0.194367 -0.675868,0.194367 z"
               style="font-weight:bold;-inkscape-font-specification:'Raleway Semi-Bold Italic'"
               id="path1020" />
            <path
               d="m 51.370328,18.408861 q -0.278298,0 -0.503588,-0.09277 -0.225289,-0.09718 -0.384317,-0.260629 -0.159028,-0.167863 -0.247377,-0.3799 -0.08393,-0.216454 -0.08393,-0.454996 0,-0.331308 0.145775,-0.605189 0.150193,-0.273882 0.424075,-0.437327 0.278298,-0.167863 0.653781,-0.167863 0.3799,0 0.649363,0.167863 0.269464,0.163445 0.410822,0.437327 0.145776,0.269464 0.145776,0.583102 0,0.05301 -0.0044,0.110436 -0.0044,0.05301 -0.0088,0.08835 h -1.789063 q 0.01767,0.176697 0.101601,0.30922 0.08835,0.132524 0.220872,0.203203 0.136941,0.06626 0.291551,0.06626 0.176698,0 0.331308,-0.08393 0.159028,-0.08835 0.216455,-0.229707 l 0.508006,0.141358 q -0.08393,0.176698 -0.24296,0.313638 -0.15461,0.136941 -0.366647,0.216455 -0.212037,0.0751 -0.468249,0.0751 z m -0.605189,-1.387076 h 1.210379 q -0.01767,-0.176697 -0.101602,-0.304803 -0.07951,-0.132523 -0.212037,-0.203202 -0.132523,-0.0751 -0.295968,-0.0751 -0.159028,0 -0.291551,0.0751 -0.128106,0.07068 -0.212037,0.203202 -0.07951,0.128106 -0.09718,0.304803 z"
               style="font-weight:bold;-inkscape-font-specification:'Raleway Semi-Bold Italic'"
               id="path1022" />
          </g>
        </g>
      </g>
    </g>
  </g>
</svg>
